<svg width="30" height="30" viewBox="0 0 30 30" xmlns="http://www.w3.org/2000/svg">
                                        <g>
                                            <path d="M8.49943 13.5002H4.99992C4.86733 13.5002 4.74018 13.5529 4.64642 13.6467C4.55267 13.7404 4.5 13.8676 4.5 14.0002V18.9994C4.5 19.132 4.55267 19.2592 4.64642 19.3529C4.74018 19.4467 4.86733 19.4993 4.99992 19.4993H8.49943C8.63202 19.4993 8.75918 19.4467 8.85293 19.3529C8.94669 19.2592 8.99936 19.132 8.99936 18.9994V14.0002C8.99936 13.8676 8.94669 13.7404 8.85293 13.6467C8.75918 13.5529 8.63202 13.5002 8.49943 13.5002ZM7.99951 18.4995H5.49984V14.5001H7.99951V18.4995ZM16.9982 13.5002H13.4987C13.3661 13.5002 13.2389 13.5529 13.1452 13.6467C13.0514 13.7404 12.9987 13.8676 12.9987 14.0002V18.9994C12.9987 19.132 13.0514 19.2592 13.1452 19.3529C13.2389 19.4467 13.3661 19.4993 13.4987 19.4993H16.9982C17.1308 19.4993 17.2579 19.4467 17.3517 19.3529C17.4454 19.2592 17.4981 19.132 17.4981 18.9994V14.0002C17.4981 13.8676 17.4454 13.7404 17.3517 13.6467C17.2579 13.5529 17.1308 13.5002 16.9982 13.5002ZM16.4982 18.4995H13.9986V14.5001H16.4982V18.4995ZM16.9982 21.499H13.4987C13.3661 21.499 13.2389 21.5517 13.1452 21.6455C13.0514 21.7392 12.9987 21.8664 12.9987 21.999V26.9982C12.9987 27.1308 13.0514 27.258 13.1452 27.3517C13.2389 27.4455 13.3661 27.4982 13.4987 27.4982H16.9982C17.1308 27.4982 17.2579 27.4455 17.3517 27.3517C17.4454 27.258 17.4981 27.1308 17.4981 26.9982V21.999C17.4981 21.8664 17.4454 21.7392 17.3516 21.6455C17.2579 21.5517 17.1307 21.4991 16.9982 21.499ZM16.4982 26.4983H13.9986V22.4989H16.4982V26.4983ZM24.997 13.5002H21.4975C21.3649 13.5002 21.2378 13.5529 21.144 13.6467C21.0503 13.7404 20.9976 13.8676 20.9976 14.0002V18.9994C20.9976 19.132 21.0503 19.2592 21.144 19.3529C21.2378 19.4467 21.3649 19.4993 21.4975 19.4993H24.997C25.1296 19.4993 25.2568 19.4467 25.3505 19.3529C25.4443 19.2592 25.497 19.132 25.497 18.9994V14.0002C25.497 13.8676 25.4443 13.7404 25.3505 13.6467C25.2568 13.5529 25.1296 13.5002 24.997 13.5002ZM24.4971 18.4995H21.9975V14.5001H24.4971V18.4995ZM8.49943 21.499H4.99992C4.86733 21.499 4.74018 21.5517 4.64642 21.6455C4.55267 21.7392 4.5 21.8664 4.5 21.999V26.9982C4.5 27.1308 4.55267 27.258 4.64642 27.3517C4.74018 27.4455 4.86733 27.4982 4.99992 27.4982H8.49943C8.63202 27.4982 8.75918 27.4455 8.85293 27.3517C8.94669 27.258 8.99936 27.1308 8.99936 26.9982V21.999C8.99934 21.8664 8.94666 21.7392 8.85291 21.6455C8.75916 21.5517 8.63202 21.4991 8.49943 21.499ZM7.99951 26.4983H5.49984V22.4989H7.99951V26.4983ZM24.997 21.499H21.4975C21.3649 21.499 21.2378 21.5517 21.144 21.6455C21.0503 21.7392 20.9976 21.8664 20.9976 21.999V26.9982C20.9976 27.1308 21.0503 27.258 21.144 27.3517C21.2378 27.4455 21.3649 27.4982 21.4975 27.4982H24.997C25.1296 27.4982 25.2568 27.4455 25.3505 27.3517C25.4443 27.258 25.497 27.1308 25.497 26.9982V21.999C25.4969 21.8664 25.4443 21.7392 25.3505 21.6455C25.2568 21.5517 25.1296 21.4991 24.997 21.499ZM24.4971 26.4983H21.9975V22.4989H24.4971V26.4983Z"></path>
                                            <path d="M27.996 28.998V12.0004H28.4959C28.6285 12.0004 28.7556 11.9477 28.8494 11.854C28.9431 11.7602 28.9958 11.6331 28.9958 11.5005V9.00088C28.9958 8.93523 28.9829 8.87022 28.9578 8.80957C28.9326 8.74891 28.8958 8.6938 28.8494 8.64738C28.803 8.60096 28.7479 8.56413 28.6872 8.53901C28.6266 8.51389 28.5615 8.50096 28.4959 8.50096H27.996V6.50127C27.996 6.36868 27.9433 6.24152 27.8496 6.14777C27.7558 6.05402 27.6286 6.00135 27.4961 6.00135H26.4962V0.502089C26.4962 0.369501 26.4435 0.242344 26.3498 0.14859C26.256 0.0548369 26.1289 0.00216675 25.9963 0.00216675H3.99943C3.86685 0.00216675 3.73969 0.0548369 3.64594 0.14859C3.55218 0.242344 3.49951 0.369501 3.49951 0.502089V6.00129H2.49967C2.36708 6.00129 2.23992 6.05396 2.14617 6.14771C2.05242 6.24147 1.99975 6.36862 1.99975 6.50121V8.5009H1.49982C1.36724 8.5009 1.24008 8.55357 1.14633 8.64732C1.05257 8.74107 0.999902 8.86823 0.999902 9.00082V11.5004C0.999902 11.633 1.05257 11.7602 1.14633 11.8539C1.24008 11.9477 1.36724 12.0003 1.49982 12.0003H1.99975V28.9979H0V29.9977H30V28.9979H27.996V28.998ZM4.49936 1.00201H25.4963V6.00129H4.49936V1.00201ZM2.99959 7.00113H26.9961V8.5009H2.99959V7.00113ZM26.9961 28.998H2.99959V12.0004H26.9961V28.998H26.9961ZM2.49967 11.0006H1.99975V9.5008H27.996V11.0006H2.49967Z"></path>
                                            <path d="M14.2307 2.71242C14.1512 2.50922 14.0395 2.33373 13.8955 2.18601C13.7515 2.0383 13.5783 1.9224 13.3758 1.83844C13.1733 1.75447 12.9492 1.71246 12.7032 1.71246C12.4572 1.71246 12.2326 1.75406 12.0294 1.83732C11.8262 1.92058 11.6522 2.03642 11.5075 2.1849C11.3628 2.33338 11.2507 2.50922 11.1712 2.71248C11.0917 2.91568 11.052 3.13652 11.052 3.375C11.052 3.61347 11.0917 3.83431 11.1712 4.03752C11.2507 4.24072 11.3628 4.41656 11.5075 4.5651C11.6522 4.71357 11.8262 4.82941 12.0294 4.91267C12.2326 4.99594 12.4572 5.03754 12.7032 5.03754C12.9492 5.03754 13.1733 4.99594 13.3758 4.91267C13.5783 4.82947 13.7515 4.71357 13.8955 4.5651C14.0395 4.41662 14.1512 4.24078 14.2307 4.03752C14.3102 3.83431 14.35 3.61347 14.35 3.375C14.35 3.13646 14.3102 2.91562 14.2307 2.71242ZM13.6581 3.85523C13.6109 3.99697 13.543 4.11697 13.4545 4.21517C13.3661 4.31344 13.2584 4.38879 13.1317 4.44129C13.0049 4.49379 12.8621 4.52004 12.7031 4.52004C12.5442 4.52004 12.4009 4.49379 12.2735 4.44129C12.146 4.38879 12.0376 4.31344 11.9484 4.21517C11.8591 4.11691 11.7905 3.99697 11.7425 3.85523C11.6946 3.71349 11.6705 3.55342 11.6705 3.37494C11.6705 3.19646 11.6946 3.03639 11.7425 2.89465C11.7905 2.75291 11.8591 2.63256 11.9484 2.53359C12.0376 2.43463 12.146 2.35887 12.2735 2.30637C12.401 2.25387 12.5442 2.22762 12.7031 2.22762C12.8621 2.22762 13.0049 2.25387 13.1317 2.30637C13.2584 2.35887 13.366 2.43463 13.4545 2.53359C13.543 2.63256 13.6109 2.75291 13.6581 2.89465C13.7054 3.03639 13.729 3.19646 13.729 3.37494C13.729 3.55342 13.7054 3.71349 13.6581 3.85523ZM9.96305 1.74844V3.14771H8.43779V1.74844H7.82812V5.00144H8.43779V3.57967H9.96305V5.00144H10.5727V1.74844H9.96305ZM20.5096 4.50199V1.74844H19.9044V5.00144H21.8121V4.50199H20.5096ZM14.3769 1.74844V2.2456H15.3601V5.00144H15.9652V2.2456H16.9438V1.74844H14.3769ZM19.3802 2.22984V1.74844H17.3285V5.00144H19.3802V4.51775H17.9382V3.59765H19.0743V3.13195H17.9382V2.22984H19.3802Z"></path>
                                        </g>
                                    </svg>