<svg width="30" height="30" viewBox="0 0 30 30" xmlns="http://www.w3.org/2000/svg">
                                        <path d="M15 7.5C13.5166 7.5 12.0666 7.93987 10.8332 8.76398C9.59986 9.58809 8.63856 10.7594 8.07091 12.1299C7.50325 13.5003 7.35472 15.0083 7.64411 16.4632C7.9335 17.918 8.64781 19.2544 9.6967 20.3033C10.7456 21.3522 12.082 22.0665 13.5368 22.3559C14.9917 22.6453 16.4997 22.4968 17.8701 21.9291C19.2406 21.3614 20.4119 20.4001 21.236 19.1668C22.0601 17.9334 22.5 16.4834 22.5 15C22.4977 13.0116 21.7068 11.1052 20.3008 9.6992C18.8948 8.29317 16.9884 7.50226 15 7.5ZM15 21.5625C13.7021 21.5625 12.4333 21.1776 11.3541 20.4565C10.2749 19.7354 9.43374 18.7105 8.93704 17.5114C8.44034 16.3122 8.31038 14.9927 8.5636 13.7197C8.81682 12.4467 9.44183 11.2774 10.3596 10.3596C11.2774 9.44183 12.4467 8.81681 13.7197 8.5636C14.9927 8.31038 16.3122 8.44034 17.5114 8.93704C18.7105 9.43374 19.7354 10.2749 20.4565 11.3541C21.1776 12.4333 21.5625 13.7021 21.5625 15C21.5605 16.7399 20.8685 18.4079 19.6382 19.6382C18.4079 20.8685 16.7399 21.5605 15 21.5625Z"></path>
                                        <path d="M28.5937 2.34375H27.6562C26.5377 2.34501 25.4654 2.78988 24.6745 3.58078C23.8836 4.37168 23.4387 5.444 23.4375 6.5625V7.55859C22.4473 6.43566 21.2428 5.52171 19.8948 4.87032C18.5468 4.21892 17.0823 3.84319 15.5872 3.76515C14.0921 3.68711 12.5964 3.90833 11.1879 4.41585C9.77944 4.92337 8.48642 5.70696 7.3847 6.7207L7.13398 2.78262C7.12506 2.65931 7.06779 2.54452 6.97464 2.46324C6.88149 2.38195 6.76 2.34076 6.63662 2.34863C6.51324 2.35649 6.39797 2.41278 6.3159 2.50524C6.23382 2.59769 6.1916 2.71883 6.19841 2.84227L6.49607 7.5174C6.28015 7.66934 5.66638 7.89756 4.68745 7.95504V2.8125C4.68745 2.68818 4.63807 2.56895 4.55016 2.48104C4.46225 2.39314 4.34302 2.34375 4.2187 2.34375C4.09438 2.34375 3.97515 2.39314 3.88725 2.48104C3.79934 2.56895 3.74995 2.68818 3.74995 2.8125V7.95498C2.82693 7.89979 2.18275 7.68961 1.9414 7.51594L2.239 2.84232C2.24581 2.71888 2.20358 2.59775 2.12151 2.50529C2.03944 2.41284 1.92416 2.35655 1.80078 2.34869C1.67741 2.34082 1.55592 2.38201 1.46277 2.4633C1.36962 2.54458 1.31235 2.65937 1.30343 2.78268L0.941262 8.4699C0.909135 9.01667 1.08368 9.55555 1.43029 9.97965C1.77689 10.4037 2.27023 10.6821 2.81245 10.7595V15.4688C2.68813 15.4688 2.5689 15.5181 2.481 15.606C2.39309 15.694 2.3437 15.8132 2.3437 15.9375V24.8438C2.3437 25.341 2.54125 25.8179 2.89288 26.1696C3.24451 26.5212 3.72142 26.7188 4.2187 26.7188C4.71598 26.7188 5.1929 26.5212 5.54453 26.1696C5.89616 25.8179 6.0937 25.341 6.0937 24.8438V21.8718C7.28797 23.4181 8.86423 24.6269 10.6674 25.3793C12.4706 26.1316 14.4385 26.4016 16.3777 26.1627C18.3168 25.9237 20.1604 25.1841 21.727 24.0165C23.2936 22.849 24.5293 21.2937 25.3125 19.5037V24.8438C25.3125 25.341 25.51 25.8179 25.8616 26.1696C26.2133 26.5212 26.6902 26.7188 27.1875 26.7188C27.6847 26.7188 28.1616 26.5212 28.5133 26.1696C28.8649 25.8179 29.0625 25.341 29.0625 24.8438V2.8125C29.0625 2.68818 29.0131 2.56895 28.9252 2.48104C28.8373 2.39314 28.718 2.34375 28.5937 2.34375ZM5.1562 24.8438C5.1562 25.0924 5.05743 25.3308 4.88162 25.5067C4.7058 25.6825 4.46734 25.7812 4.2187 25.7812C3.97006 25.7812 3.73161 25.6825 3.55579 25.5067C3.37998 25.3308 3.2812 25.0924 3.2812 24.8438V16.4062H5.1562V24.8438ZM3.74995 15.4688V10.7812H4.68745V15.4688H3.74995ZM5.31669 9.84375H3.12071C2.95143 9.84376 2.78391 9.80926 2.6284 9.74236C2.47289 9.67546 2.33266 9.57755 2.21626 9.45463C2.09986 9.3317 2.00974 9.18634 1.95141 9.02742C1.89308 8.8685 1.86777 8.69935 1.877 8.53031C2.40259 8.74652 3.17573 8.90625 4.2187 8.90625C5.07529 8.90625 5.9355 8.78643 6.56029 8.53254C6.56926 8.7014 6.54375 8.87031 6.4853 9.02899C6.42686 9.18766 6.3367 9.33277 6.22034 9.45546C6.10398 9.57815 5.96384 9.67586 5.80848 9.74261C5.65312 9.80937 5.48579 9.84378 5.31669 9.84375ZM21.989 22.5831C20.855 23.6282 19.501 24.4057 18.0267 24.8583C16.5525 25.3109 14.9955 25.4272 13.4703 25.1984C11.9452 24.9697 10.4908 24.4018 9.2142 23.5366C7.93757 22.6714 6.87124 21.531 6.0937 20.1991V15.9375C6.0937 15.8132 6.04432 15.694 5.95641 15.606C5.8685 15.5181 5.74927 15.4688 5.62495 15.4688V10.7595C6.16757 10.682 6.66122 10.4034 7.00785 9.97878C7.35448 9.55419 7.52872 9.01475 7.49597 8.46762L7.46368 7.96131C8.51072 6.84001 9.79479 5.96649 11.2223 5.40442C12.6497 4.84236 14.1846 4.60592 15.7151 4.71233C17.2455 4.81875 18.733 5.26534 20.0689 6.01956C21.4049 6.77377 22.5557 7.8166 23.4375 9.07201V15.9375C23.4375 16.0618 23.4868 16.181 23.5747 16.269C23.6627 16.3569 23.7819 16.4062 23.9062 16.4062H25.2169C24.8931 18.7783 23.7515 20.9629 21.989 22.5831ZM28.125 24.8438C28.125 25.0924 28.0262 25.3308 27.8504 25.5067C27.6746 25.6825 27.4361 25.7812 27.1875 25.7812C26.9388 25.7812 26.7004 25.6825 26.5245 25.5067C26.3487 25.3308 26.25 25.0924 26.25 24.8438V16.4062H28.125V24.8438ZM28.125 15.4688H24.375V6.5625C24.3759 5.69256 24.7219 4.85853 25.3371 4.24339C25.9522 3.62824 26.7863 3.28223 27.6562 3.28125H28.125V15.4688Z"></path>
                                    </svg>