<svg width="30" height="30" viewBox="0 0 30 30" xmlns="http://www.w3.org/2000/svg">
                                        <path d="M22.184 17.0504C20.1656 14.6134 17.6143 13.2712 15 13.2712C12.3856 13.2712 9.83427 14.6134 7.81595 17.0504C6.00166 19.241 4.91861 22.0017 4.91861 24.4353C4.91861 25.6175 5.28001 26.5179 5.99275 27.1118C6.69623 27.698 7.62499 27.8962 8.66117 27.8962C9.76372 27.8962 10.988 27.6717 12.1909 27.451C13.242 27.2582 14.2348 27.0761 15 27.0761C15.6605 27.0761 16.5917 27.2489 17.5774 27.4319C19.8812 27.8596 22.4923 28.3443 24.0007 27.0902C24.7178 26.494 25.0814 25.6007 25.0814 24.4353C25.0814 22.0017 23.9983 19.241 22.184 17.0504ZM22.8769 25.7385C22.0025 26.4656 19.7268 26.0431 17.8982 25.7037C16.8305 25.5054 15.8221 25.3182 14.9999 25.3182C14.0748 25.3182 13.0056 25.5144 11.8736 25.7221C10.1198 26.0437 7.93718 26.4442 7.11781 25.7614C7.00859 25.6704 6.67625 25.3935 6.67625 24.4352C6.67625 22.4286 7.63167 20.0285 9.16958 18.1716C10.848 16.1451 12.9186 15.029 14.9998 15.029C17.0811 15.029 19.1517 16.1451 20.8301 18.1716C22.3681 20.0285 23.3234 22.4286 23.3234 24.4352C23.3236 25.3672 22.9874 25.6467 22.8769 25.7385ZM22.3904 3.81715C21.6519 2.7283 20.5944 2.10392 19.489 2.10392C18.3836 2.10392 17.3261 2.72842 16.5876 3.81715C15.9092 4.8174 15.5356 6.13095 15.5356 7.51588C15.5356 8.9008 15.9092 10.2144 16.5876 11.2146C17.3261 12.3034 18.3836 12.9279 19.489 12.9279C20.5944 12.9279 21.6519 12.3034 22.3904 11.2146C23.0688 10.2144 23.4424 8.9008 23.4424 7.51588C23.4424 6.13095 23.0688 4.81734 22.3904 3.81715ZM20.9357 10.2279C20.697 10.5798 20.1917 11.1701 19.489 11.1701C18.7863 11.1701 18.281 10.5799 18.0423 10.2279C17.5663 9.52611 17.2933 8.53758 17.2933 7.51588C17.2933 6.49412 17.5664 5.50564 18.0423 4.80381C18.281 4.45195 18.7863 3.86162 19.489 3.86162C20.1917 3.86162 20.697 4.45189 20.9357 4.80381C21.4117 5.50564 21.6847 6.49418 21.6847 7.51588C21.6846 8.53758 21.4117 9.52611 20.9357 10.2279ZM13.4124 3.81709C12.6738 2.72824 11.6164 2.10381 10.511 2.10381C9.40554 2.10381 8.34804 2.7283 7.60958 3.81709C6.93119 4.81734 6.55753 6.1309 6.55753 7.51582C6.55753 8.90074 6.93113 10.2143 7.60958 11.2145C8.3481 12.3034 9.40554 12.9279 10.511 12.9279C11.6164 12.9279 12.6738 12.3034 13.4124 11.2145C14.0908 10.2143 14.4644 8.9008 14.4644 7.51582C14.4643 6.1309 14.0908 4.81728 13.4124 3.81709ZM11.9575 10.2279C11.7189 10.5798 11.2136 11.1701 10.5109 11.1701C9.8082 11.1701 9.30289 10.5798 9.06423 10.2279C8.58822 9.52611 8.31523 8.53758 8.31523 7.51588C8.31523 6.49412 8.58828 5.50564 9.06423 4.80381C9.30289 4.45195 9.8082 3.86162 10.5109 3.86162C11.2136 3.86162 11.7189 4.45189 11.9575 4.80381C12.4335 5.50564 12.7065 6.49418 12.7065 7.51588C12.7065 8.53758 12.4335 9.52611 11.9575 10.2279ZM29.8253 12.3125C29.5276 11.2997 28.8894 10.5639 28.0285 10.2405C27.3357 9.98027 26.5536 10.0244 25.8264 10.3648C24.8241 10.8337 24.0049 11.8022 23.579 13.0217C23.2309 14.0183 23.1874 15.0716 23.4568 15.9878C23.7545 17.0006 24.3927 17.7364 25.2536 18.0598C25.5516 18.1717 25.8659 18.2273 26.1854 18.2273C26.6088 18.2273 27.0413 18.1295 27.4558 17.9355C28.4581 17.4666 29.2773 16.4981 29.7032 15.2787V15.2786C30.0513 14.2821 30.0947 13.2287 29.8253 12.3125ZM28.0437 14.6989C27.7768 15.4631 27.2785 16.0778 26.7107 16.3435C26.502 16.4411 26.187 16.5327 25.8717 16.4143C25.1107 16.1284 24.8146 14.8139 25.2383 13.6014C25.5052 12.8372 26.0036 12.2225 26.5713 11.9568C26.7097 11.892 26.8948 11.83 27.0956 11.83C27.1978 11.83 27.3041 11.846 27.4103 11.8859C28.1714 12.1719 28.4674 13.4863 28.0437 14.6989ZM6.42107 13.0216C5.99503 11.8021 5.17584 10.8337 4.17365 10.3647C3.44632 10.0243 2.66421 9.98027 1.97146 10.2404C1.11048 10.5639 0.472339 11.2997 0.174624 12.3124C-0.094731 13.2287 -0.051313 14.282 0.296792 15.2786V15.2786C0.722886 16.4981 1.54203 17.4665 2.54421 17.9355C2.95882 18.1295 3.39119 18.2273 3.81464 18.2273C4.1341 18.2273 4.44851 18.1716 4.7464 18.0598C5.6075 17.7363 6.24558 17.0004 6.5433 15.9878C6.81253 15.0716 6.76912 14.0182 6.42107 13.0216ZM4.12824 16.4143C3.81294 16.5327 3.49794 16.4411 3.28923 16.3435C2.72152 16.0778 2.22312 15.4631 1.95623 14.6989V14.699C1.53265 13.4864 1.82861 12.172 2.58962 11.886C2.90486 11.7676 3.21992 11.8592 3.42869 11.9568C3.99646 12.2225 4.4948 12.8373 4.76169 13.6014C5.18527 14.814 4.88925 16.1284 4.12824 16.4143Z"></path>
                                    </svg>