<svg width="30" height="30" viewBox="0 0 30 30" xmlns="http://www.w3.org/2000/svg">
                                        <path d="M20.394 28.3337C18.2328 28.3337 16.3165 27.4462 14.999 26.615C13.6803 27.4462 11.7653 28.3337 9.60405 28.3337C5.82655 28.3337 2.82655 25.6162 2.70155 25.5C2.63774 25.4416 2.58678 25.3705 2.55192 25.2913C2.51706 25.2121 2.49906 25.1265 2.49906 25.04C2.49906 24.9535 2.51706 24.8679 2.55192 24.7887C2.58678 24.7095 2.63774 24.6384 2.70155 24.58C2.7803 24.5062 4.35905 23.0762 6.6503 22.2775C6.07534 21.8904 5.53873 21.4493 5.0478 20.96C1.53405 17.4462 1.2728 12.125 1.26405 11.9C1.26107 11.8137 1.27589 11.7278 1.30758 11.6475C1.33928 11.5672 1.38716 11.4943 1.44826 11.4333C1.50935 11.3723 1.58235 11.3246 1.6627 11.293C1.74305 11.2615 1.82903 11.2469 1.9153 11.25C2.0803 11.2575 5.5678 11.4325 8.7628 13.3387C8.75395 13.1635 8.74937 12.988 8.74905 12.8125C8.74905 5.89625 14.3265 0.406246 14.564 0.176246C14.6804 0.063305 14.8362 0.000137329 14.9984 0.000137329C15.1606 0.000137329 15.3164 0.063305 15.4328 0.176246C15.6715 0.406246 21.249 5.89625 21.249 12.8125C21.249 12.9837 21.244 13.1587 21.2353 13.3387C24.4303 11.4325 27.9178 11.2575 28.0828 11.25C28.1693 11.2463 28.2557 11.2606 28.3363 11.292C28.417 11.3234 28.4903 11.3712 28.5516 11.4325C28.6128 11.4937 28.6606 11.567 28.692 11.6477C28.7235 11.7284 28.7378 11.8147 28.734 11.9012C28.724 12.1262 28.4628 17.4475 24.9503 20.9612C24.4588 21.4499 23.9222 21.891 23.3478 22.2787C25.639 23.0775 27.2178 24.5075 27.2965 24.5812C27.3606 24.6394 27.4118 24.7102 27.4468 24.7893C27.4819 24.8684 27.5001 24.9539 27.5002 25.0403C27.5003 25.1268 27.4824 25.2124 27.4475 25.2915C27.4127 25.3707 27.3617 25.4417 27.2978 25.5C27.1715 25.6162 24.1728 28.3337 20.394 28.3337ZM14.999 25.2437C15.1215 25.2437 15.2428 25.2787 15.3478 25.35C16.5203 26.1412 18.3478 27.0837 20.394 27.0837C22.789 27.0837 24.899 25.7637 25.8765 25.04C25.0715 24.445 23.5015 23.4487 21.6378 23.1137C21.5091 23.0907 21.3909 23.0278 21.2998 22.934C21.2087 22.8402 21.1493 22.7202 21.13 22.5909C21.1107 22.4616 21.1324 22.3295 21.1921 22.2132C21.2518 22.0969 21.3465 22.0022 21.4628 21.9425C22.4221 21.459 23.3005 20.8294 24.0665 20.0762C26.5178 17.625 27.2203 14.08 27.4153 12.5712C26.0903 12.745 23.1978 13.3137 20.8615 15.0975C20.763 15.173 20.6441 15.2175 20.5201 15.2252C20.3962 15.2329 20.2727 15.2034 20.1656 15.1407C20.0584 15.0779 19.9724 14.9846 19.9184 14.8727C19.8645 14.7608 19.8451 14.6354 19.8628 14.5125C19.9553 13.8562 19.999 13.3162 19.999 12.8125C19.999 7.51625 16.289 2.95875 14.999 1.53375C13.709 2.95875 9.99905 7.51625 9.99905 12.8125C9.99905 13.3162 10.0428 13.8562 10.1353 14.5137C10.1517 14.6363 10.1315 14.761 10.0773 14.8721C10.0231 14.9833 9.93719 15.0759 9.83049 15.1384C9.72378 15.2009 9.60098 15.2305 9.47752 15.2234C9.35406 15.2164 9.23543 15.173 9.13655 15.0987C6.79405 13.31 3.90655 12.7437 2.58405 12.5725C2.7803 14.0825 3.4878 17.6337 5.93155 20.0775C6.69759 20.8306 7.57598 21.4602 8.5353 21.9437C8.65095 22.004 8.74492 22.0987 8.80412 22.2149C8.86331 22.3311 8.88477 22.4628 8.86551 22.5918C8.84624 22.7207 8.78721 22.8405 8.69664 22.9342C8.60607 23.028 8.48849 23.0912 8.3603 23.115C6.4978 23.45 4.92655 24.4462 4.12155 25.0412C5.0978 25.765 7.20905 27.085 9.60405 27.085C11.6503 27.085 13.4778 26.1425 14.6503 25.3512C14.7531 25.2812 14.8746 25.2438 14.999 25.2437Z"></path>
                                        <path d="M15 29.9475C14.8342 29.9475 14.6753 29.8817 14.5581 29.7644C14.4408 29.6472 14.375 29.4883 14.375 29.3225V10.7812C14.375 10.6155 14.4408 10.4565 14.5581 10.3393C14.6753 10.2221 14.8342 10.1562 15 10.1562C15.1658 10.1562 15.3247 10.2221 15.4419 10.3393C15.5592 10.4565 15.625 10.6155 15.625 10.7812V29.3225C15.625 29.4883 15.5592 29.6472 15.4419 29.7644C15.3247 29.8817 15.1658 29.9475 15 29.9475Z"></path>
                                        <path d="M14.9726 25.6512C14.8067 25.6513 14.6476 25.5857 14.5301 25.4687L9.5563 20.495C9.44246 20.3771 9.37946 20.2192 9.38088 20.0554C9.38231 19.8915 9.44804 19.7347 9.56392 19.6189C9.6798 19.503 9.83656 19.4372 10.0004 19.4358C10.1643 19.4344 10.3222 19.4974 10.4401 19.6112L14.9726 24.1425L19.5301 19.585C19.6479 19.4711 19.8058 19.4081 19.9697 19.4096C20.1336 19.411 20.2903 19.4767 20.4062 19.5926C20.5221 19.7085 20.5878 19.8652 20.5892 20.0291C20.5907 20.193 20.5277 20.3509 20.4138 20.4687L15.4138 25.4687C15.3559 25.5267 15.2871 25.5727 15.2114 25.604C15.1357 25.6353 15.0545 25.6514 14.9726 25.6512Z"></path>
                                    </svg>