<svg width="30" height="30" viewBox="0 0 30 30" xmlns="http://www.w3.org/2000/svg">
                                        <g>
                                            <path d="M24.3721 15.7246C24.3721 11.9517 21.313 8.89258 17.54 8.89258C13.7673 8.89282 10.709 11.9518 10.709 15.7246C10.7092 19.4972 13.7674 22.5554 17.54 22.5557C21.3129 22.5557 24.3718 19.4974 24.3721 15.7246ZM25.3721 15.7246C25.3718 20.0497 21.8651 23.5557 17.54 23.5557C13.2151 23.5554 9.70922 20.0495 9.70898 15.7246C9.70898 11.3995 13.215 7.89282 17.54 7.89258C21.8653 7.89258 25.3721 11.3994 25.3721 15.7246Z"></path>
                                            <path d="M21.1289 15.7246C21.1289 13.7689 20.6859 12.0225 19.9951 10.7832C19.2951 9.5275 18.4074 8.89259 17.542 8.89258C16.6767 8.89258 15.7889 9.52747 15.0889 10.7832C14.3981 12.0225 13.9551 13.7689 13.9551 15.7246C13.9551 17.6801 14.3981 19.4259 15.0889 20.665C15.7889 21.9208 16.6766 22.5557 17.542 22.5557C18.4074 22.5557 19.2951 21.9207 19.9951 20.665C20.6859 19.4259 21.1288 17.6801 21.1289 15.7246ZM22.1289 15.7246C22.1288 17.8176 21.6573 19.7373 20.8691 21.1514C20.09 22.549 18.9337 23.5557 17.542 23.5557C16.1503 23.5557 14.9949 22.549 14.2158 21.1514C13.4276 19.7372 12.9551 17.8178 12.9551 15.7246C12.9551 13.6312 13.4275 11.7111 14.2158 10.2969C14.9949 8.8992 16.1503 7.89258 17.542 7.89258C18.9338 7.89259 20.09 8.8992 20.8691 10.2969C21.6574 11.7111 22.1289 13.6314 22.1289 15.7246Z"></path>
                                            <path d="M29.0596 23.1318V8.31543C29.0595 6.95356 27.9556 5.84961 26.5938 5.84961H8.4873C7.12549 5.8497 6.02154 6.95369 6.02148 8.31543V23.1318C6.02148 24.4936 7.1254 25.5976 8.4873 25.5977H11.249C11.525 25.5977 11.7488 25.8218 11.749 26.0977C11.749 26.3738 11.5251 26.5976 11.249 26.5977H8.4873C6.57313 26.5976 5.02148 25.0459 5.02148 23.1318V8.31543C5.02154 6.40139 6.57322 4.8497 8.4873 4.84961H26.5938C28.5079 4.84961 30.0595 6.40128 30.0596 8.31543V23.1318C30.0596 25.046 28.5079 26.5977 26.5938 26.5977H24.0312C23.7631 26.5977 23.4969 26.6509 23.249 26.7539C23.0016 26.8569 22.7769 27.0081 22.5879 27.1982L20.2354 29.5654C19.1837 30.6233 17.3783 29.8781 17.3779 28.3867V27.2061C17.3779 26.8706 17.1059 26.5978 16.7705 26.5977H13.2998C13.0237 26.5977 12.7998 26.3738 12.7998 26.0977C12.8 25.8217 13.0238 25.5977 13.2998 25.5977H16.7705C17.6581 25.5978 18.3779 26.3183 18.3779 27.2061V28.3867C18.3783 28.9858 19.103 29.2847 19.5254 28.8604L21.8789 26.4932C22.1609 26.2096 22.4961 25.9846 22.8652 25.8311C23.2346 25.6775 23.6312 25.5977 24.0312 25.5977H26.5938C27.9556 25.5977 29.0596 24.4937 29.0596 23.1318ZM17.041 22.7764V19.9395H11.3203C11.0442 19.9395 10.8203 19.7156 10.8203 19.4395C10.8205 19.1635 11.0443 18.9395 11.3203 18.9395H17.041V16.2236H10.4316C10.1555 16.2236 9.93164 15.9998 9.93164 15.7236C9.93178 15.4476 10.1556 15.2236 10.4316 15.2236H17.041V12.5078H11.3203C11.0442 12.5078 10.8203 12.284 10.8203 12.0078C10.8204 11.7317 11.0442 11.5078 11.3203 11.5078H17.041V8.59668C17.041 8.32054 17.2649 8.09668 17.541 8.09668C17.817 8.0969 18.041 8.32067 18.041 8.59668V11.5078H23.7129C23.989 11.5078 24.2128 11.7317 24.2129 12.0078C24.2129 12.284 23.989 12.5078 23.7129 12.5078H18.041V15.2236H24.6309C24.9069 15.2237 25.1307 15.4476 25.1309 15.7236C25.1309 15.9998 24.907 16.2236 24.6309 16.2236H18.041V18.9395H23.7129C23.9889 18.9395 24.2127 19.1635 24.2129 19.4395C24.2129 19.7156 23.989 19.9395 23.7129 19.9395H18.041V22.7764C18.0409 23.0523 17.8169 23.2761 17.541 23.2764C17.2649 23.2764 17.0411 23.0524 17.041 22.7764Z"></path>
                                            <path d="M5.02246 8.31543C5.02257 6.40133 6.57418 4.84963 8.48828 4.84961H22.2539V3.19238C22.2537 2.02591 21.3675 1.06658 20.2314 0.951172L20.001 0.939453H12.6289C12.3529 0.939294 12.1289 0.715498 12.1289 0.439453C12.1289 0.163409 12.3529 -0.0603882 12.6289 -0.0605469H20.001L20.168 -0.0566406C21.887 0.0302574 23.2537 1.45181 23.2539 3.19238V5.34961C23.2539 5.62575 23.03 5.84961 22.7539 5.84961H8.48828C7.12644 5.84963 6.02257 6.95363 6.02246 8.31543V19.7002C6.02246 19.9763 5.79855 20.2001 5.52246 20.2002H3.19238C1.45188 20.2 0.0303517 18.8332 -0.0566406 17.1143L-0.0605469 16.9473V3.19238C-0.0603539 1.39594 1.39594 -0.0603539 3.19238 -0.0605469H10.5781C10.8543 -0.0605469 11.0781 0.163311 11.0781 0.439453C11.0781 0.715596 10.8543 0.939453 10.5781 0.939453H3.19238C1.94823 0.939646 0.939646 1.94823 0.939453 3.19238V16.9473L0.951172 17.1777C1.06667 18.3137 2.02597 19.2 3.19238 19.2002H5.02246V8.31543Z"></path>
                                        </g>
                                    </svg>