<svg width="30" height="30" viewBox="0 0 30 30" xmlns="http://www.w3.org/2000/svg">
                                        <path d="M15.0013 14.4272C12.1553 14.4272 9.83984 12.1117 9.83984 9.26572C9.83984 6.41973 12.1553 4.10426 15.0013 4.10426C17.8476 4.10426 20.1628 6.41973 20.1628 9.26572C20.1628 12.1117 17.8473 14.4272 15.0013 14.4272ZM15.0013 5.34386C12.8386 5.34386 11.0794 7.1034 11.0794 9.26578C11.0794 11.4282 12.8389 13.1877 15.0013 13.1877C17.1637 13.1877 18.9232 11.4282 18.9232 9.26578C18.9232 7.1034 17.1637 5.34386 15.0013 5.34386Z"></path>
                                        <path d="M14.9995 25.8957C11.8192 25.8957 8.82259 24.667 6.56136 22.4362C6.50199 22.3776 6.45506 22.3076 6.42338 22.2305C6.3917 22.1533 6.37593 22.0706 6.377 21.9872C6.39342 20.6736 6.69743 19.4152 7.28065 18.2472C8.7517 15.3008 11.7092 13.4706 14.9996 13.4706C19.6974 13.4706 23.5672 17.2912 23.6258 21.9872C23.6269 22.0706 23.6111 22.1534 23.5793 22.2306C23.5476 22.3077 23.5006 22.3777 23.4411 22.4362C21.1802 24.6673 18.1823 25.8957 14.9995 25.8957ZM7.62427 21.7389C9.62799 23.6221 12.2363 24.6561 14.9995 24.6561C17.7649 24.6561 20.3748 23.6224 22.3785 21.7392C22.1904 17.8396 18.9341 14.7098 14.9995 14.7098C12.182 14.7098 9.64904 16.2772 8.38965 18.8006C7.92947 19.7222 7.67262 20.7092 7.62427 21.7389ZM24.4612 13.2562C22.5809 13.2562 21.0509 11.7262 21.0509 9.84586C21.0509 7.96547 22.5809 6.43591 24.4612 6.43591C26.3416 6.43591 27.8715 7.96583 27.8715 9.84621C27.8715 11.7266 26.3419 13.2562 24.4612 13.2562ZM24.4612 7.67544C23.2645 7.67544 22.2905 8.64938 22.2905 9.84615C22.2905 11.0429 23.2645 12.0169 24.4612 12.0169C25.658 12.0169 26.632 11.0429 26.632 9.84615C26.632 8.64938 25.6583 7.67544 24.4612 7.67544Z"></path>
                                        <path d="M24.4585 20.3029C23.7492 20.3029 23.0476 20.2054 22.3733 20.0126C22.0439 19.9186 21.8533 19.5756 21.9475 19.2465C22.0417 18.9171 22.3839 18.7259 22.7136 18.8207C23.2772 18.9815 23.8645 19.0631 24.4585 19.0631C26.0607 19.0631 27.5738 18.478 28.7486 17.4101C28.584 15.192 26.7123 13.4293 24.4585 13.4293C22.8192 13.4293 21.3458 14.3417 20.6132 15.8102C20.5754 15.8849 20.2541 16.6583 19.7003 16.3695C19.1022 16.0574 19.4545 15.3555 19.5047 15.2551C20.4481 13.3648 22.3464 12.1897 24.4585 12.1897C27.4753 12.1897 29.9612 14.6425 29.9996 17.6577C30.0006 17.741 29.9848 17.8237 29.9531 17.9008C29.9215 17.9779 29.8746 18.0478 29.8152 18.1064C28.3819 19.5229 26.4793 20.3029 24.4585 20.3029ZM5.53726 13.2562C3.65688 13.2562 2.12695 11.7262 2.12695 9.84586C2.12695 7.96547 3.65688 6.43591 5.53726 6.43591C7.41764 6.43591 8.94757 7.96583 8.94757 9.84621C8.94757 11.7266 7.41764 13.2562 5.53726 13.2562ZM5.53726 7.67544C4.34019 7.67544 3.36655 8.64938 3.36655 9.84615C3.36655 11.0429 4.34049 12.0169 5.53726 12.0169C6.73403 12.0169 7.70797 11.0429 7.70797 9.84615C7.70797 8.64938 6.73403 7.67544 5.53726 7.67544Z"></path>
                                        <path d="M5.53766 20.3029C3.51568 20.3029 1.61419 19.5226 0.183813 18.1062C0.124633 18.0477 0.0778577 17.9778 0.0462837 17.9008C0.0147097 17.8238 -0.00101469 17.7413 5.07368e-05 17.6581C0.0384684 14.6432 2.52283 12.1902 5.53766 12.1902C7.6517 12.1902 9.55159 13.3652 10.4958 15.2571C10.5444 15.3541 10.8184 16.139 10.3067 16.3637C9.8013 16.5856 9.42509 15.8871 9.38733 15.8115C8.65383 14.342 7.17909 13.4297 5.53796 13.4297C3.28601 13.4297 1.41556 15.1923 1.2513 17.4108C2.42357 18.4783 3.93518 19.0634 5.53796 19.0634C6.13634 19.0634 6.7248 18.9807 7.28697 18.8183C7.61578 18.7225 7.9594 18.9125 8.05455 19.2413C8.1497 19.5701 7.96035 19.9137 7.63154 20.0089C6.95727 20.2037 6.25261 20.3029 5.53766 20.3029Z"></path>
                                    </svg>