<svg width="30" height="30" viewBox="0 0 30 30" xmlns="http://www.w3.org/2000/svg">
                                        <g>
                                            <path d="M27.6562 3.75H25.7812V2.34375C25.7812 1.05141 24.7298 0 23.4375 0C22.1452 0 21.0938 1.05141 21.0938 2.34375V3.75H8.90625V2.34375C8.90625 1.05141 7.85484 0 6.5625 0C5.27016 0 4.21875 1.05141 4.21875 2.34375V3.75H2.34375C1.05141 3.75 0 4.80141 0 6.09375V27.6562C0 28.9486 1.05141 30 2.34375 30H27.6562C28.9486 30 30 28.9486 30 27.6562V6.09375C30 4.80141 28.9486 3.75 27.6562 3.75ZM22.0312 2.34375C22.0312 1.56844 22.6622 0.9375 23.4375 0.9375C24.2128 0.9375 24.8438 1.56844 24.8438 2.34375V6.5625H22.0312V2.34375ZM5.15625 2.34375C5.15625 1.56844 5.78719 0.9375 6.5625 0.9375C7.33781 0.9375 7.96875 1.56844 7.96875 2.34375V6.5625H5.15625V2.34375ZM2.34375 4.6875H4.21875V7.03125C4.21875 7.15557 4.26814 7.2748 4.35604 7.36271C4.44395 7.45061 4.56318 7.5 4.6875 7.5H8.4375C8.56182 7.5 8.68105 7.45061 8.76896 7.36271C8.85686 7.2748 8.90625 7.15557 8.90625 7.03125V4.6875H21.0938V7.03125C21.0938 7.15557 21.1431 7.2748 21.231 7.36271C21.319 7.45061 21.4382 7.5 21.5625 7.5H25.3125C25.4368 7.5 25.556 7.45061 25.644 7.36271C25.7319 7.2748 25.7812 7.15557 25.7812 7.03125V4.6875H27.6562C28.4316 4.6875 29.0625 5.31844 29.0625 6.09375V10.3125H0.9375V6.09375C0.9375 5.31844 1.56844 4.6875 2.34375 4.6875ZM27.6562 29.0625H2.34375C1.56844 29.0625 0.9375 28.4316 0.9375 27.6562V11.25H29.0625V27.6562C29.0625 28.4316 28.4316 29.0625 27.6562 29.0625Z"></path>
                                            <path d="M23.4375 14.0625H6.5625C5.27016 14.0625 4.21875 15.1139 4.21875 16.4062V22.9688C4.21875 24.2611 5.27016 25.3125 6.5625 25.3125H23.4375C24.7298 25.3125 25.7812 24.2611 25.7812 22.9688V16.4062C25.7812 15.1139 24.7298 14.0625 23.4375 14.0625ZM24.8438 22.9688C24.8438 23.7441 24.2128 24.375 23.4375 24.375H6.5625C5.78719 24.375 5.15625 23.7441 5.15625 22.9688V16.4062C5.15625 15.6309 5.78719 15 6.5625 15H23.4375C24.2128 15 24.8438 15.6309 24.8438 16.4062V22.9688Z"></path>
                                            <path d="M9.375 16.4062C8.08266 16.4062 7.03125 17.4577 7.03125 18.75V22.5C7.03125 22.6243 7.08064 22.7435 7.16854 22.8315C7.25645 22.9194 7.37568 22.9688 7.5 22.9688C7.62432 22.9688 7.74355 22.9194 7.83146 22.8315C7.91936 22.7435 7.96875 22.6243 7.96875 22.5V20.1562H10.7812V22.5C10.7812 22.6243 10.8306 22.7435 10.9185 22.8315C11.0065 22.9194 11.1257 22.9688 11.25 22.9688C11.3743 22.9688 11.4935 22.9194 11.5815 22.8315C11.6694 22.7435 11.7188 22.6243 11.7188 22.5V18.75C11.7188 17.4577 10.6673 16.4062 9.375 16.4062ZM7.96875 19.2188V18.75C7.96875 17.9747 8.59969 17.3438 9.375 17.3438C10.1503 17.3438 10.7812 17.9747 10.7812 18.75V19.2188H7.96875ZM14.0625 17.3438H15.9375C16.0618 17.3438 16.181 17.3931 16.269 17.481C16.3569 17.569 16.4062 17.6882 16.4062 17.8125C16.4062 17.9368 16.4556 18.056 16.5435 18.144C16.6315 18.2319 16.7507 18.2812 16.875 18.2812C16.9993 18.2812 17.1185 18.2319 17.2065 18.144C17.2944 18.056 17.3438 17.9368 17.3438 17.8125C17.3438 17.0372 16.7128 16.4062 15.9375 16.4062H14.0625C13.2872 16.4062 12.6562 17.0372 12.6562 17.8125V21.5625C12.6562 22.3378 13.2872 22.9688 14.0625 22.9688H15.9375C16.7128 22.9688 17.3438 22.3378 17.3438 21.5625V19.6875C17.3438 19.5632 17.2944 19.444 17.2065 19.356C17.1185 19.2681 16.9993 19.2188 16.875 19.2188H15C14.8757 19.2188 14.7565 19.2681 14.6685 19.356C14.5806 19.444 14.5312 19.5632 14.5312 19.6875C14.5312 19.8118 14.5806 19.931 14.6685 20.019C14.7565 20.1069 14.8757 20.1562 15 20.1562H16.4062V21.5625C16.4062 21.6868 16.3569 21.806 16.269 21.894C16.181 21.9819 16.0618 22.0312 15.9375 22.0312H14.0625C13.9382 22.0312 13.819 21.9819 13.731 21.894C13.6431 21.806 13.5938 21.6868 13.5938 21.5625V17.8125C13.5938 17.6882 13.6431 17.569 13.731 17.481C13.819 17.3931 13.9382 17.3438 14.0625 17.3438ZM19.6875 17.3438H22.5C22.6243 17.3438 22.7435 17.2944 22.8315 17.2065C22.9194 17.1185 22.9688 16.9993 22.9688 16.875C22.9688 16.7507 22.9194 16.6315 22.8315 16.5435C22.7435 16.4556 22.6243 16.4062 22.5 16.4062H19.6875C18.9122 16.4062 18.2812 17.0372 18.2812 17.8125V21.5625C18.2812 22.3378 18.9122 22.9688 19.6875 22.9688H22.5C22.6243 22.9688 22.7435 22.9194 22.8315 22.8315C22.9194 22.7435 22.9688 22.6243 22.9688 22.5C22.9688 22.3757 22.9194 22.2565 22.8315 22.1685C22.7435 22.0806 22.6243 22.0312 22.5 22.0312H19.6875C19.5632 22.0312 19.444 21.9819 19.356 21.894C19.2681 21.806 19.2188 21.6868 19.2188 21.5625V20.1562H22.5C22.6243 20.1562 22.7435 20.1069 22.8315 20.019C22.9194 19.931 22.9688 19.8118 22.9688 19.6875C22.9688 19.5632 22.9194 19.444 22.8315 19.356C22.7435 19.2681 22.6243 19.2188 22.5 19.2188H19.2188V17.8125C19.2188 17.6882 19.2681 17.569 19.356 17.481C19.444 17.3931 19.5632 17.3438 19.6875 17.3438Z"></path>
                                        </g>
                                    </svg>