<svg width="30" height="30" viewBox="0 0 30 30" xmlns="http://www.w3.org/2000/svg">
                                        <path d="M19.6914 2.34375C19.368 2.34375 19.1055 2.60625 19.1055 2.92969C19.1055 3.25313 19.368 3.51562 19.6914 3.51562C20.0148 3.51562 20.2773 3.25313 20.2773 2.92969C20.2773 2.60625 20.0148 2.34375 19.6914 2.34375ZM10.3164 2.34375C9.99297 2.34375 9.73047 2.60625 9.73047 2.92969C9.73047 3.25313 9.99297 3.51562 10.3164 3.51562C10.6398 3.51562 10.9023 3.25313 10.9023 2.92969C10.9023 2.60625 10.6398 2.34375 10.3164 2.34375Z"></path>
                                        <path d="M27.1907 29.0089L23.3134 24.9582C24.8798 24.9021 26.137 23.6111 26.137 22.0312V4.64473C26.1361 3.69546 25.8069 2.77573 25.2052 2.04152C24.6038 1.30969 23.7613 0.805371 22.8333 0.621797C20.7491 0.208741 18.6295 0.000483935 16.5048 0L13.4093 0C11.3137 0.000427757 9.22333 0.207365 7.16836 0.617812C5.25791 1.00002 3.87135 2.69168 3.87135 4.64004V22.0312C3.87135 23.6244 5.14986 24.9237 6.73465 24.9592L2.81361 29.0064C2.7335 29.089 2.67952 29.1934 2.65839 29.3066C2.63726 29.4197 2.64994 29.5366 2.69483 29.6426C2.73972 29.7486 2.81483 29.839 2.9108 29.9026C3.00677 29.9661 3.11933 30 3.23443 30H7.42389C7.51649 30 7.60777 29.9781 7.69025 29.936C7.77272 29.8939 7.84405 29.8328 7.89838 29.7578L9.67576 27.3047H20.3847L22.1621 29.7579C22.2164 29.8329 22.2878 29.8939 22.3702 29.936C22.4527 29.978 22.544 30 22.6366 30H26.7674C26.8822 30 26.9945 29.9663 27.0903 29.903C27.1861 29.8397 27.2612 29.7497 27.3063 29.6442C27.3513 29.5386 27.3644 29.4221 27.3439 29.3092C27.3233 29.1962 27.27 29.0918 27.1907 29.0089ZM5.04322 22.0312V4.64004C5.04322 3.24826 6.03363 2.03994 7.39811 1.76689C9.37741 1.37164 11.3908 1.17233 13.4092 1.17188H16.5047C18.5481 1.17188 20.6005 1.3735 22.6054 1.77123C23.2702 1.90356 23.8688 2.26184 24.2995 2.78525C24.7292 3.30969 24.9644 3.96663 24.965 4.64467V22.0312C24.965 23.0005 24.1765 23.7891 23.2072 23.7891H6.80098C5.83178 23.7891 5.04322 23.0005 5.04322 22.0312ZM7.12488 28.8281H4.61795L8.36461 24.9609H9.92684L7.12488 28.8281ZM10.5248 26.1328L11.3739 24.9609H18.6866L19.5356 26.1328H10.5248ZM22.9356 28.8281L20.1337 24.9609H21.6938L25.3955 28.8281H22.9356Z"></path>
                                        <path d="M23.207 4.6875H6.80078C6.47723 4.6875 6.21484 4.94988 6.21484 5.27344V15C6.21484 15.3236 6.47723 15.5859 6.80078 15.5859H23.207C23.5306 15.5859 23.793 15.3236 23.793 15V5.27344C23.793 4.94988 23.5306 4.6875 23.207 4.6875ZM14.418 14.4141H7.38672V5.85938H14.418V14.4141ZM22.6211 14.4141H15.5898V5.85938H22.6211V14.4141ZM17.3477 2.34375H12.6602C12.3366 2.34375 12.0742 2.60613 12.0742 2.92969C12.0742 3.25324 12.3366 3.51562 12.6602 3.51562H17.3477C17.6712 3.51562 17.9336 3.25324 17.9336 2.92969C17.9336 2.60613 17.6712 2.34375 17.3477 2.34375ZM21.4492 17.3438C20.1569 17.3438 19.1055 18.3952 19.1055 19.6875C19.1055 20.9798 20.1569 22.0312 21.4492 22.0312C22.7416 22.0312 23.793 20.9798 23.793 19.6875C23.793 18.3952 22.7416 17.3438 21.4492 17.3438ZM21.4492 20.8594C20.803 20.8594 20.2773 20.3337 20.2773 19.6875C20.2773 19.0413 20.803 18.5156 21.4492 18.5156C22.0954 18.5156 22.6211 19.0413 22.6211 19.6875C22.6211 20.3337 22.0954 20.8594 21.4492 20.8594ZM8.55859 17.3438C7.26625 17.3438 6.21484 18.3952 6.21484 19.6875C6.21484 20.9798 7.26631 22.0312 8.55859 22.0312C9.85094 22.0312 10.9023 20.9798 10.9023 19.6875C10.9023 18.3952 9.85094 17.3438 8.55859 17.3438ZM8.55859 20.8594C7.91242 20.8594 7.38672 20.3337 7.38672 19.6875C7.38672 19.0413 7.91242 18.5156 8.55859 18.5156C9.20477 18.5156 9.73047 19.0413 9.73047 19.6875C9.73047 20.3337 9.20477 20.8594 8.55859 20.8594ZM17.3477 17.9297H12.6602C12.3366 17.9297 12.0742 18.1921 12.0742 18.5156C12.0742 18.8392 12.3366 19.1016 12.6602 19.1016H17.3477C17.6712 19.1016 17.9336 18.8392 17.9336 18.5156C17.9336 18.1921 17.6713 17.9297 17.3477 17.9297ZM17.3477 20.2734H12.6602C12.3366 20.2734 12.0742 20.5358 12.0742 20.8594C12.0742 21.1829 12.3366 21.4453 12.6602 21.4453H17.3477C17.6712 21.4453 17.9336 21.1829 17.9336 20.8594C17.9336 20.5358 17.6713 20.2734 17.3477 20.2734Z"></path>
                                    </svg>