<svg width="30" height="30" viewBox="0 0 30 30" xmlns="http://www.w3.org/2000/svg">
                                        <path d="M7.55227 10.4163C6.94457 10.4159 6.36185 10.1745 5.93203 9.74487C5.50221 9.31529 5.26043 8.7327 5.25977 8.12501C5.25977 6.86251 6.28852 5.83376 7.55227 5.83376C8.81477 5.83376 9.84352 6.86126 9.84352 8.12501C9.84352 9.38751 8.81602 10.4163 7.55227 10.4163ZM7.55227 6.97876C7.25752 6.99252 6.97941 7.1193 6.77569 7.33276C6.57197 7.54621 6.45831 7.82994 6.45831 8.12501C6.45831 8.42007 6.57197 8.7038 6.77569 8.91725C6.97941 9.13071 7.25752 9.25749 7.55227 9.27126C7.84701 9.25749 8.12512 9.13071 8.32884 8.91725C8.53256 8.7038 8.64622 8.42007 8.64622 8.12501C8.64622 7.82994 8.53256 7.54621 8.32884 7.33276C8.12512 7.1193 7.84701 6.99252 7.55227 6.97876ZM24.166 7.26501H12.7085C12.5567 7.26501 12.4111 7.20469 12.3037 7.09732C12.1963 6.98996 12.136 6.84434 12.136 6.69251C12.136 6.54067 12.1963 6.39505 12.3037 6.28769C12.4111 6.18032 12.5567 6.12001 12.7085 6.12001H24.166C24.3179 6.12001 24.4635 6.18032 24.5708 6.28769C24.6782 6.39505 24.7385 6.54067 24.7385 6.69251C24.7385 6.84434 24.6782 6.98996 24.5708 7.09732C24.4635 7.20469 24.3179 7.26501 24.166 7.26501ZM19.5835 10.13H12.7085C12.5567 10.13 12.4111 10.0697 12.3037 9.96232C12.1963 9.85496 12.136 9.70934 12.136 9.55751C12.136 9.40567 12.1963 9.26005 12.3037 9.15269C12.4111 9.04532 12.5567 8.98501 12.7085 8.98501H19.5835C19.7354 8.98501 19.881 9.04532 19.9883 9.15269C20.0957 9.26005 20.156 9.40567 20.156 9.55751C20.156 9.70934 20.0957 9.85496 19.9883 9.96232C19.881 10.0697 19.7354 10.13 19.5835 10.13ZM7.55227 17.2913C6.94457 17.2909 6.36185 17.0495 5.93203 16.6199C5.50221 16.1903 5.26043 15.6077 5.25977 15C5.25977 13.7375 6.28852 12.7088 7.55227 12.7088C8.81477 12.7088 9.84352 13.7363 9.84352 15C9.84352 16.2625 8.81602 17.2913 7.55227 17.2913ZM7.55227 13.8538C7.25752 13.8675 6.97941 13.9943 6.77569 14.2078C6.57197 14.4212 6.45831 14.7049 6.45831 15C6.45831 15.2951 6.57197 15.5788 6.77569 15.7923C6.97941 16.0057 7.25752 16.1325 7.55227 16.1463C7.84701 16.1325 8.12512 16.0057 8.32884 15.7923C8.53256 15.5788 8.64622 15.2951 8.64622 15C8.64622 14.7049 8.53256 14.4212 8.32884 14.2078C8.12512 13.9943 7.84701 13.8675 7.55227 13.8538ZM24.166 14.1413H12.7085C12.5565 14.1413 12.4107 14.0809 12.3033 13.9734C12.1958 13.8659 12.1354 13.7201 12.1354 13.5681C12.1354 13.4161 12.1958 13.2704 12.3033 13.1629C12.4107 13.0554 12.5565 12.995 12.7085 12.995H24.166C24.3179 12.995 24.4635 13.0553 24.5708 13.1627C24.6782 13.2701 24.7385 13.4157 24.7385 13.5675C24.7385 13.7193 24.6782 13.865 24.5708 13.9723C24.4635 14.0797 24.3179 14.1413 24.166 14.1413ZM19.5835 17.005H12.7085C12.5567 17.005 12.4111 16.9447 12.3037 16.8373C12.1963 16.73 12.136 16.5843 12.136 16.4325C12.136 16.2807 12.1963 16.1351 12.3037 16.0277C12.4111 15.9203 12.5567 15.86 12.7085 15.86H19.5835C19.7354 15.86 19.881 15.9203 19.9883 16.0277C20.0957 16.1351 20.156 16.2807 20.156 16.4325C20.156 16.5843 20.0957 16.73 19.9883 16.8373C19.881 16.9447 19.7354 17.005 19.5835 17.005ZM7.55227 24.1663C6.94457 24.1659 6.36185 23.9245 5.93203 23.4949C5.50221 23.0653 5.26043 22.4827 5.25977 21.875C5.25977 20.6125 6.28852 19.5838 7.55227 19.5838C8.81477 19.5838 9.84352 20.6113 9.84352 21.875C9.84352 23.1375 8.81602 24.1663 7.55227 24.1663ZM7.55227 20.7288C7.25752 20.7425 6.97941 20.8693 6.77569 21.0828C6.57197 21.2962 6.45831 21.5799 6.45831 21.875C6.45831 22.1701 6.57197 22.4538 6.77569 22.6673C6.97941 22.8807 7.25752 23.0075 7.55227 23.0213C7.84701 23.0075 8.12512 22.8807 8.32884 22.6673C8.53256 22.4538 8.64622 22.1701 8.64622 21.875C8.64622 21.5799 8.53256 21.2962 8.32884 21.0828C8.12512 20.8693 7.84701 20.7425 7.55227 20.7288ZM24.166 21.0163H12.7085C12.5565 21.0163 12.4107 20.9559 12.3033 20.8484C12.1958 20.7409 12.1354 20.5951 12.1354 20.4431C12.1354 20.2911 12.1958 20.1454 12.3033 20.0379C12.4107 19.9304 12.5565 19.87 12.7085 19.87H24.166C24.3179 19.87 24.4635 19.9303 24.5708 20.0377C24.6782 20.1451 24.7385 20.2907 24.7385 20.4425C24.7385 20.5943 24.6782 20.74 24.5708 20.8473C24.4635 20.9547 24.3179 21.0163 24.166 21.0163ZM19.5835 23.88H12.7085C12.5567 23.88 12.4111 23.8197 12.3037 23.7123C12.1963 23.605 12.136 23.4593 12.136 23.3075C12.136 23.1557 12.1963 23.0101 12.3037 22.9027C12.4111 22.7953 12.5567 22.735 12.7085 22.735H19.5835C19.7354 22.735 19.881 22.7953 19.9883 22.9027C20.0957 23.0101 20.156 23.1557 20.156 23.3075C20.156 23.4593 20.0957 23.605 19.9883 23.7123C19.881 23.8197 19.7354 23.88 19.5835 23.88Z"></path>
                                        <path fill-rule="evenodd" clip-rule="evenodd" d="M21.4162 2.39625H8.58375C7.28125 2.39625 6.3725 2.39625 5.66625 2.455C4.9725 2.51125 4.575 2.6175 4.2725 2.77C3.62556 3.09959 3.09959 3.62556 2.77 4.2725C2.61625 4.575 2.51125 4.9725 2.455 5.66625C2.39625 6.3725 2.39625 7.28125 2.39625 8.58375V21.4162C2.39625 22.7187 2.39625 23.6262 2.455 24.3337C2.51125 25.0275 2.6175 25.425 2.77 25.7275C3.09959 26.3744 3.62556 26.9004 4.2725 27.23C4.575 27.3837 4.9725 27.4887 5.66625 27.545C6.3725 27.6037 7.28125 27.6037 8.58375 27.6037H21.4162C22.7187 27.6037 23.6262 27.6037 24.3337 27.545C25.0275 27.4887 25.425 27.3825 25.7275 27.23C26.3744 26.9004 26.9004 26.3744 27.23 25.7275C27.3837 25.425 27.4887 25.0275 27.545 24.3337C27.6037 23.6262 27.6037 22.7187 27.6037 21.4162V8.58375C27.6037 7.28125 27.6037 6.3725 27.545 5.66625C27.4887 4.9725 27.3825 4.575 27.23 4.2725C26.9004 3.62556 26.3744 3.09959 25.7275 2.77C25.425 2.61625 25.0275 2.51125 24.3337 2.455C23.6262 2.39625 22.7187 2.39625 21.4162 2.39625ZM1.75 3.7525C1.25 4.7325 1.25 6.01625 1.25 8.58375V21.4162C1.25 23.9837 1.25 25.2662 1.75 26.2475C2.18875 27.11 2.89 27.81 3.7525 28.25C4.7325 28.75 6.01625 28.75 8.58375 28.75H21.4162C23.9837 28.75 25.2662 28.75 26.2475 28.25C27.1096 27.8105 27.8105 27.1096 28.25 26.2475C28.75 25.2675 28.75 23.9837 28.75 21.4162V8.58375C28.75 6.01625 28.75 4.73375 28.25 3.7525C27.8106 2.89036 27.1096 2.1894 26.2475 1.75C25.2675 1.25 23.9837 1.25 21.4162 1.25H8.58375C6.01625 1.25 4.73375 1.25 3.7525 1.75C2.89 2.18875 2.19 2.89 1.75 3.7525Z"></path>
                                    </svg>